<svg id="Layer_1" data-name="Layer 1" xmlns="http://www.w3.org/2000/svg" viewBox="0 0 301.08 189.72"><defs><style>.cls-1{fill:none;stroke:#cd9e66;stroke-miterlimit:10;stroke-width:2px;}.cls-2{font-size:66.16px;}.cls-2,.cls-4{fill:#544f36;font-family:BodoniSvtyTwoITCTT-Bold, "Bodoni 72";font-weight:700;}.cls-3{fill:#cd9e66;}.cls-4{font-size:25px;}</style></defs><title>beer_logo</title><line class="cls-1" x1="15.2" y1="164.38" x2="15.2" y2="49.73"/><line class="cls-1" x1="101.9" y1="49.73" x2="15.2" y2="49.73"/><line class="cls-1" x1="273.9" y1="164.38" x2="273.9" y2="49.73"/><line class="cls-1" x1="187.21" y1="49.73" x2="273.9" y2="49.73"/><text class="cls-2" transform="translate(66.18 162.69)">BEER</text><path class="cls-1" d="M25.29,188.72c-5.68,0-12.3-1.3-14.6-7.07a9,9,0,0,1,5-11.68A7.2,7.2,0,0,1,25,174a5.75,5.75,0,0,1-3.21,7.47,4.59,4.59,0,0,1-6-2.56,3.68,3.68,0,0,1,2-4.78"/><line class="cls-1" x1="141.84" y1="188.72" x2="25.29" y2="188.72"/><path class="cls-1" d="M263.12,188.72c5.91,0,12.8-1.3,15.2-7.07A8.88,8.88,0,0,0,273.11,170a7.6,7.6,0,0,0-9.73,4,5.67,5.67,0,0,0,3.34,7.47,4.84,4.84,0,0,0,6.22-2.56,3.63,3.63,0,0,0-2.13-4.78"/><line class="cls-1" x1="141.84" y1="188.72" x2="263.12" y2="188.72"/><path class="cls-3" d="M128.76,24c-12.59-.07-19.24-7.84-21.42-21.42C118.47,2.38,129.76,13.68,128.76,24Z"/><path class="cls-3" d="M132.79,37.84c-10.56,6.86-20.39,4-29.67-6.11C112.32,25.47,128,28.69,132.79,37.84Z"/><path class="cls-3" d="M146.29,49.84c-7.85,9.84-18.07,10.25-30.08,3.56C123,44.56,138.83,42.68,146.29,49.84Z"/><path class="cls-3" d="M163,66.35c-9.24,8.54-19.41,7.42-30.27-1C140.7,57.62,156.66,58.15,163,66.35Z"/><path class="cls-3" d="M144.17,29.67C151,19.12,148.2,9.29,138.06,0,131.8,9.2,135,24.84,144.17,29.67Z"/><path class="cls-3" d="M156.17,43.18c9.84-7.85,10.25-18.08,3.56-30.09C150.89,19.85,149,35.71,156.17,43.18Z"/><path class="cls-3" d="M172.68,59.86c8.54-9.25,7.42-19.41-1-30.28C164,37.59,164.48,53.55,172.68,59.86Z"/><line class="cls-1" x1="130.87" y1="27.73" x2="174.04" y2="69.5"/><text class="cls-4" transform="translate(75.77 99.24)">HOEGARDEN</text></svg>